<?xml version="1.0" standalone="no"?><!DOCTYPE svg PUBLIC "-//W3C//DTD SVG 1.1//EN" "http://www.w3.org/Graphics/SVG/1.1/DTD/svg11.dtd"><svg t="1772197127018" class="icon" viewBox="0 0 1024 1024" version="1.1" xmlns="http://www.w3.org/2000/svg" p-id="7197" xmlns:xlink="http://www.w3.org/1999/xlink" width="200" height="200"><path d="M779.6 761.044c-20.424 0-39.712-8.38-53.412-22.604-13.72 14.224-33.016 22.604-53.428 22.604-19.528 0-35.428-7.252-48.22-22.084-13.54 14.056-32.18 22.084-52.432 22.084-20.42 0-39.704-8.376-53.4-22.588-13.696 14.212-32.98 22.588-53.4 22.588-20.44 0-39.736-8.376-53.44-22.592-13.696 14.216-32.98 22.592-53.4 22.592-20.412 0-39.708-8.38-53.428-22.604-13.7 14.224-32.988 22.604-53.412 22.604-26.304 0-50.752-13.916-63.808-36.32l20.736-12.084c8.772 15.052 25.276 24.4 43.072 24.4 17.804 0 34.288-9.344 43.024-24.384a11.996 11.996 0 0 1 10.368-5.976h0.008c4.268 0 8.22 2.268 10.368 5.96 8.772 15.052 25.276 24.4 43.072 24.4 17.804 0 34.288-9.344 43.024-24.384a11.992 11.992 0 0 1 20.752 0c8.732 15.04 25.236 24.384 43.064 24.384 17.804 0 34.292-9.344 43.024-24.384a12 12 0 0 1 20.752 0c8.732 15.04 25.22 24.384 43.024 24.384 17.688 0 33.544-9.116 42.408-24.384a12 12 0 0 1 20.752 0c9.792 16.864 21.352 24.384 37.492 24.384 17.796 0 34.3-9.348 43.072-24.4a12 12 0 0 1 10.368-5.96h0.008a12.004 12.004 0 0 1 10.368 5.976c8.736 15.04 25.22 24.384 43.024 24.384 17.804 0 34.292-9.344 43.024-24.384l20.752 12.052c-13.012 22.416-37.448 36.336-63.776 36.336zM829.4 675.956c-20.412 0-39.708-8.38-53.428-22.604-13.696 14.224-32.984 22.604-53.412 22.604s-39.716-8.38-53.412-22.604c-13.72 14.224-33.016 22.604-53.428 22.604-19.332 0-35.516-7.428-48.216-22.1-13.536 14.064-32.176 22.1-52.424 22.1-20.42 0-39.704-8.376-53.4-22.588-13.696 14.212-32.98 22.588-53.4 22.588-19.644 0-38.072-7.472-51.888-21.036a12 12 0 0 1-3.228-11.492c22.32-88.712 101.88-150.672 193.476-150.672h8.912c0.38-0.056 0.764-0.092 1.156-0.108a104.224 104.224 0 0 0 9.588-0.904c47.92-6.996 84.144-48.956 84.144-97.588 0-15.86-3.872-31.656-11.196-45.684-3.82-7.292-10.756-12.224-19.028-13.52a26.848 26.848 0 0 0-23.196 7.436l-3.228 3.188c-4.108 4.024-9.432 6.22-15.032 6.22a21.504 21.504 0 0 1-21.48-21.48c0-37.144 30.22-67.36 67.36-67.36h65c67.248 0 122.396 30.144 159.488 87.172 30.484 46.868 47.272 109.436 47.272 176.188v109.84a12 12 0 0 1-8.52 11.484l-0.152 0.044c-13.756 17.64-35.32 28.272-58.328 28.272z m-53.44-54.36c4.268 0 8.216 2.268 10.368 5.956 8.772 15.052 25.276 24.404 43.076 24.404 17.788 0 34.26-9.328 43-24.344v-101.296c0-119.144-56.512-239.36-182.76-239.36h-65c-21.688 0-39.712 16.008-42.872 36.828 11.484-10.404 26.72-14.976 42.16-12.544 15.86 2.484 29.192 12 36.58 26.108a123.164 123.164 0 0 1 13.928 56.804c0 60.464-45.048 112.636-104.788 121.356a134.56 134.56 0 0 1-10.192 1.024 11.764 11.764 0 0 1-2.26 0.22h-10.56c-78.124 0-146.292 51.228-168.268 125.452 8.524 6.324 18.92 9.748 29.908 9.748 17.804 0 34.292-9.344 43.024-24.384a12 12 0 0 1 20.752 0c8.732 15.04 25.22 24.384 43.024 24.384 17.672 0 33.516-9.116 42.384-24.384a12 12 0 0 1 20.776 0.036c1.296 2.248 2.708 4.42 4.196 6.448 8.936 12.408 19.184 17.9 33.284 17.9 17.796 0 34.3-9.348 43.072-24.404a12 12 0 0 1 10.368-5.956h0.004a12 12 0 0 1 10.372 5.976c8.732 15.04 25.22 24.384 43.024 24.384s34.288-9.344 43.02-24.384a11.996 11.996 0 0 1 10.38-5.972z" fill="#44294F" p-id="7198"></path><path d="M884.4 526.316v109.84c-0.56-0.84-1.08-1.68-1.6-2.56-10.52 18.12-30.48 30.36-53.4 30.36-22.92 0-42.88-12.24-53.44-30.36-10.52 18.12-30.48 30.36-53.4 30.36-22.92 0-42.88-12.24-53.4-30.36-10.56 18.12-30.52 30.36-53.44 30.36-19.56 0-32.96-8.92-42.96-22.8-1.76-2.4-3.4-4.92-4.92-7.56-10.52 18.12-29.8 30.36-52.76 30.36-22.92 0-42.88-12.24-53.4-30.36-10.52 18.12-30.48 30.36-53.4 30.36-17.04 0-32.4-6.72-43.48-17.6 20.48-81.4 94.12-141.6 181.84-141.6h10.56l0.04-0.12c3.6-0.16 7.16-0.52 10.68-1 53.44-7.8 94.52-53.84 94.52-109.48 0-18.48-4.56-35.92-12.56-51.24-11.96-22.84-42.92-27.16-61.28-9.08l-3.24 3.2c-1.92 1.88-4.28 2.76-6.6 2.76-4.84 0-9.48-3.8-9.48-9.48 0-30.56 24.76-55.36 55.36-55.36h65c138.8 0 194.76 134.12 194.76 251.36z" fill="#94D3CC" p-id="7199"></path><path d="M409.38 627.932a151 151 0 0 1 47.564-57.888l6.756-4.676c38.632-30.28 120.532-28.208 120.532-28.208 65.98-15.084 114.204-74.608 114.204-143.008a147.292 147.292 0 0 0-16.648-67.904 73.94 73.94 0 0 0-10.656-15.296s-35.468-33.2-90.776-13.768a55.048 55.048 0 0 0-11.08 33.128c0 5.68 4.64 9.48 9.48 9.48 2.32 0 4.68-0.88 6.6-2.76l3.24-3.2c18.36-18.08 49.32-13.76 61.28 9.08 8 15.32 12.56 32.76 12.56 51.24 0 55.64-41.08 101.68-94.52 109.48-3.52 0.48-7.08 0.84-10.68 1l-0.04 0.12h-10.56c-87.72 0-161.36 60.2-181.84 141.6 9.308 7.748 15.764 11.176 31.26 16.412l13.324-34.832z" fill="#E8E6F4" p-id="7200"></path><path d="M546.64 504.756h10.56l0.04-0.12c3.6-0.16 7.16-0.52 10.68-1-14.36-78.36-61.6-150.76-153.6-150.76H361.48c-24.88 0-45.04 20.16-45.04 45.04 0 4.64 3.8 7.68 7.76 7.68 1.88 0 3.76-0.68 5.32-2.2l2.68-2.64c14.92-14.68 40.08-11.16 49.8 7.4a89.6 89.6 0 0 1 10.24 41.68c0 48.2-37.96 87.52-85.6 89.84l-0.04 0.08h-8.56c-68.6 0-126.6 45.32-145.72 107.64 11 10.28 25.88 16.56 42.28 16.56 22.92 0 42.88-12.24 53.4-30.36 10.56 18.12 30.52 30.36 53.44 30.36 22.92 0 42.88-12.24 53.4-30.36 2.72 4.68 6.08 8.96 9.96 12.76 20.48-81.4 94.12-141.6 181.84-141.6z" fill="#94D3CC" p-id="7201"></path><path d="M416.332 396.42c-12.628-20.604-26-32-26-32l-14-11.54-14.852-0.004c-24.88 0-45.04 20.16-45.04 45.04 0 4.64 3.8 7.68 7.76 7.68 1.88 0 3.76-0.68 5.32-2.2l2.68-2.64c14.92-14.68 40.08-11.16 49.8 7.4a89.6 89.6 0 0 1 10.24 41.68c0 48.2-37.96 87.52-85.6 89.84l-0.04 0.08h-8.56c-68.6 0-126.6 45.32-145.72 107.64a61.552 61.552 0 0 0 36.388 16.28c6.132-24.216 20.444-53.776 53.584-71.452 53.376-28.468 85.932-2.064 136.764-40.048 60.668-45.336 52.708-130.584 37.276-155.756z" fill="#E8E6F4" p-id="7202"></path><path d="M829.4 675.956c-20.412 0-39.708-8.38-53.428-22.604-13.696 14.224-32.984 22.604-53.412 22.604s-39.716-8.38-53.412-22.604c-13.72 14.224-33.016 22.604-53.428 22.604-19.332 0-35.516-7.428-48.216-22.1-13.536 14.064-32.176 22.1-52.424 22.1-20.42 0-39.704-8.376-53.4-22.588-13.696 14.212-32.98 22.588-53.4 22.588-19.644 0-38.072-7.472-51.888-21.036a12 12 0 0 1-3.228-11.492c22.32-88.712 101.88-150.672 193.476-150.672h8.912c0.38-0.056 0.764-0.092 1.156-0.108a104.224 104.224 0 0 0 9.588-0.904c47.92-6.996 84.144-48.956 84.144-97.588 0-15.86-3.872-31.656-11.196-45.684-3.82-7.292-10.756-12.224-19.028-13.52a26.848 26.848 0 0 0-23.196 7.436l-3.228 3.188c-4.108 4.024-9.432 6.22-15.032 6.22a21.504 21.504 0 0 1-21.48-21.48c0-37.144 30.22-67.36 67.36-67.36h65c67.248 0 122.396 30.144 159.488 87.172 30.484 46.868 47.272 109.436 47.272 176.188v109.84a12 12 0 0 1-8.52 11.484l-0.152 0.044c-13.756 17.64-35.32 28.272-58.328 28.272z m-53.44-54.36c4.268 0 8.216 2.268 10.368 5.956 8.772 15.052 25.276 24.404 43.076 24.404 17.788 0 34.26-9.328 43-24.344v-101.296c0-119.144-56.512-239.36-182.76-239.36h-65c-21.688 0-39.712 16.008-42.872 36.828 11.484-10.404 26.72-14.976 42.16-12.544 15.86 2.484 29.192 12 36.58 26.108a123.164 123.164 0 0 1 13.928 56.804c0 60.464-45.048 112.636-104.788 121.356a134.56 134.56 0 0 1-10.192 1.024 11.764 11.764 0 0 1-2.26 0.22h-10.56c-78.124 0-146.292 51.228-168.268 125.452 8.524 6.324 18.92 9.748 29.908 9.748 17.804 0 34.292-9.344 43.024-24.384a12 12 0 0 1 20.752 0c8.732 15.04 25.22 24.384 43.024 24.384 17.672 0 33.516-9.116 42.384-24.384a12 12 0 0 1 20.776 0.036c1.296 2.248 2.708 4.42 4.196 6.448 8.936 12.408 19.184 17.9 33.284 17.9 17.796 0 34.3-9.348 43.072-24.404a12 12 0 0 1 10.368-5.956h0.004a12 12 0 0 1 10.372 5.976c8.732 15.04 25.22 24.384 43.024 24.384s34.288-9.344 43.02-24.384a11.996 11.996 0 0 1 10.38-5.972z" fill="#44294F" p-id="7203"></path><path d="M848.4 526.316h-24c0-52.212-12.988-102.12-35.628-136.932a146.28 146.28 0 0 0-14.38-18.748l17.732-16.176a169.7 169.7 0 0 1 16.768 21.836c25.108 38.608 39.508 93.288 39.508 150.02z m-105.688-179.912c-14.572-7.232-30.728-10.964-49.392-11.404l0.568-23.992c21.94 0.516 41.96 5.196 59.496 13.9l-10.672 21.496zM301.44 675.956c-20.412 0-39.708-8.38-53.428-22.604-13.696 14.224-32.988 22.604-53.412 22.604-18.892 0-36.816-7.028-50.472-19.792a12.004 12.004 0 0 1-3.28-12.288c21.308-69.456 84.48-116.12 157.192-116.12h7.224c0.26-0.032 0.528-0.052 0.792-0.068 41.596-2.024 74.184-36.224 74.184-77.852 0-12.552-3.068-25.04-8.868-36.112-2.776-5.304-7.82-8.884-13.836-9.828a19.548 19.548 0 0 0-16.916 5.412l-2.676 2.636a19.564 19.564 0 0 1-13.74 5.652c-10.896 0-19.76-8.828-19.76-19.68 0-31.452 25.588-57.04 57.04-57.04h52.84c85.144 0 146.976 60.036 165.404 160.596a11.996 11.996 0 0 1-10.18 14.052 131.04 131.04 0 0 1-10.084 1.008 11.756 11.756 0 0 1-2.256 0.22h-10.56c-80.584 0-150.572 54.5-170.204 132.528a12.008 12.008 0 0 1-20.036 5.644c-0.528-0.516-1.048-1.04-1.556-1.572-13.704 14.228-32.988 22.604-53.412 22.604zM248 621.596c4.268 0 8.216 2.268 10.368 5.956 8.772 15.052 25.276 24.404 43.072 24.404 17.804 0 34.292-9.344 43.024-24.384a12.008 12.008 0 0 1 10.372-5.976h0.004c1.672 0 3.3 0.348 4.784 0.996 28.716-77.424 102.776-129.832 187.016-129.832h6.788c-26.46-115.1-105.472-127.88-139.108-127.88H361.48c-14.348 0-26.588 9.192-31.144 21.996 9.012-5.992 19.908-8.4 30.912-6.684 13.604 2.132 25.04 10.296 31.38 22.4a102.228 102.228 0 0 1 11.608 47.248c0 53.996-41.908 98.428-95.656 101.752a11.684 11.684 0 0 1-1.984 0.168h-8.56c-59.412 0-111.36 36.468-131.68 91.556a49.936 49.936 0 0 0 28.24 8.644c17.804 0 34.292-9.344 43.024-24.384a11.996 11.996 0 0 1 10.368-5.976l0.012-0.004z" fill="#44294F" p-id="7204"></path><path d="M493.532 465.82c-14.58-29.84-36.008-47.248-63.688-51.736l3.844-23.692c35.316 5.728 63.468 28.168 81.408 64.892l-21.564 10.536zM936.248 675.948c-20.412 0-39.708-8.38-53.428-22.604-13.696 14.224-32.988 22.604-53.412 22.604-20.412 0-39.708-8.38-53.428-22.604-13.696 14.224-32.988 22.604-53.412 22.604s-39.712-8.38-53.412-22.604c-13.72 14.224-33.016 22.604-53.428 22.604-19.528 0-35.428-7.252-48.22-22.084-13.54 14.056-32.18 22.084-52.436 22.084-20.42 0-39.704-8.376-53.4-22.592-13.7 14.216-32.98 22.592-53.4 22.592-20.44 0-39.736-8.376-53.44-22.592-13.696 14.216-32.98 22.592-53.4 22.592-20.412 0-39.708-8.38-53.428-22.604-13.7 14.224-32.988 22.604-53.412 22.604-20.412 0-39.708-8.38-53.428-22.604-13.696 14.224-32.984 22.604-53.412 22.604v-24c17.804 0 34.288-9.344 43.02-24.388a12.004 12.004 0 0 1 10.368-5.976h0.008c4.268 0 8.216 2.268 10.368 5.956 8.772 15.052 25.276 24.404 43.076 24.404 17.804 0 34.288-9.344 43.024-24.388a11.996 11.996 0 0 1 10.368-5.976h0.008c4.268 0 8.22 2.268 10.368 5.96 8.768 15.052 25.272 24.404 43.072 24.404 17.804 0 34.288-9.344 43.024-24.388a12 12 0 0 1 20.756 0c8.732 15.044 25.232 24.388 43.06 24.388 17.804 0 34.288-9.344 43.024-24.388a12 12 0 0 1 20.756 0c8.732 15.044 25.216 24.388 43.02 24.388 17.692 0 33.544-9.116 42.408-24.388a12.008 12.008 0 0 1 20.76 0c9.788 16.864 21.352 24.388 37.488 24.388 17.796 0 34.3-9.348 43.072-24.404a12.008 12.008 0 0 1 10.368-5.96h0.008a12 12 0 0 1 10.368 5.976c8.736 15.044 25.22 24.388 43.024 24.388 17.804 0 34.292-9.344 43.02-24.388a12.004 12.004 0 0 1 10.368-5.976h0.008c4.268 0 8.216 2.268 10.368 5.956 8.772 15.052 25.276 24.404 43.072 24.404 17.804 0 34.292-9.344 43.02-24.388a12.004 12.004 0 0 1 10.368-5.976h0.008c4.268 0 8.216 2.268 10.368 5.956 8.772 15.052 25.276 24.404 43.072 24.404v24.012z" fill="#44294F" p-id="7205"></path></svg>